<svg xmlns="http://www.w3.org/2000/svg" viewBox="0 0 32 32" width="32" height="32">
  <!-- Background -->
  <rect width="32" height="32" rx="6" fill="#4CAF50"/>
  
  <!-- Main Leaf Shape -->
  <path d="M16 8C11 8 6 13 6 18C6 23 16 23 16 18C16 23 26 23 26 18C26 13 21 8 16 8Z" fill="#ffffff" opacity="0.9"/>
  
  <!-- Leaf Veins -->
  <path d="M16 8C14.5 11 14.5 15 16 18M16 8C17.5 11 17.5 15 16 18M11 13C14.5 15 17.5 15 21 13" stroke="#388E3C" stroke-width="1" fill="none"/>
  
  <!-- Magnifying Glass -->
  <circle cx="21" cy="16" r="4" fill="none" stroke="#FFC107" stroke-width="1.5"/>
  <line x1="24" y1="19" x2="26" y2="21" stroke="#FFC107" stroke-width="1.5" stroke-linecap="round"/>
</svg>