<svg xmlns="http://www.w3.org/2000/svg" viewBox="0 0 192 192" width="192" height="192">
  <!-- Background -->
  <rect width="192" height="192" rx="32" fill="#4CAF50"/>
  
  <!-- Main Leaf Shape -->
  <path d="M96 48C66 48 36 78 36 108C36 138 96 138 96 108C96 138 156 138 156 108C156 78 126 48 96 48Z" fill="#ffffff" opacity="0.9"/>
  
  <!-- Leaf Veins -->
  <path d="M96 48C86 68 86 88 96 108M96 48C106 68 106 88 96 108M66 78C86 88 106 88 126 78" stroke="#388E3C" stroke-width="4" fill="none"/>
  
  <!-- Magnifying Glass -->
  <circle cx="126" cy="98" r="24" fill="none" stroke="#FFC107" stroke-width="6"/>
  <line x1="142" y1="114" x2="156" y2="128" stroke="#FFC107" stroke-width="6" stroke-linecap="round"/>
</svg>