<svg xmlns="http://www.w3.org/2000/svg" viewBox="0 0 240 60" width="240" height="60">
  <!-- Main Leaf Shape -->
  <path d="M40 10C25 10 10 25 10 40C10 55 40 55 40 40C40 55 70 55 70 40C70 25 55 10 40 10Z" fill="#4CAF50" />
  
  <!-- Leaf Veins -->
  <path d="M40 10C35 20 35 30 40 40M40 10C45 20 45 30 40 40M25 25C35 30 45 30 55 25" stroke="#388E3C" stroke-width="2" fill="none" />
  
  <!-- Magnifying Glass -->
  <circle cx="55" cy="35" r="10" fill="none" stroke="#FFC107" stroke-width="3" />
  <line x1="62" y1="42" x2="68" y2="48" stroke="#FFC107" stroke-width="3" stroke-linecap="round" />
  
  <!-- Text -->
  <text x="80" y="35" font-family="Arial, sans-serif" font-size="24" font-weight="bold" fill="#333333">AgriScan</text>
  <text x="80" y="50" font-family="Arial, sans-serif" font-size="12" fill="#666666">Crop Disease Detection</text>
</svg>