<svg xmlns="http://www.w3.org/2000/svg" viewBox="0 0 24 24" width="24" height="24">
  <!-- Offline Icon -->
  <path d="M23.64 7c-.45-.34-4.93-4-11.64-4-1.5 0-2.89.19-4.15.48L10.52 6c1.1-.12 2.19-.18 3.48-.18 3.58 0 6.32 1.05 7.94 1.82L19.3 10.5 23 8.35V13h-1.17l-2.46-2.46C18.39 10.36 14.62 9 12 9c-.97 0-1.86.09-2.71.22l1.64 1.64C11.26 10.95 11.62 11 12 11c2.86 0 5.04.93 6.62 1.74L13.65 17H23v-5l-4.65 3.71-3.46-3.46L21.17 7H23c0-.55-.45-1-1-1h-4.12L17.83 6H23v1zM3 5.27l2.77 2.77h-.42C2.34 8.36 0 10.91 0 14c0 3.31 2.69 6 6 6h11.73l2 2 1.41-1.41L4.41 3.86 3 5.27zM7.73 10l8 8H6c-2.21 0-4-1.79-4-4s1.79-4 4-4h1.73z" fill="#F44336"/>
</svg>