<svg xmlns="http://www.w3.org/2000/svg" viewBox="0 0 720 1280" width="720" height="1280">
  <!-- Background -->
  <rect width="720" height="1280" fill="#f5f5f5"/>
  
  <!-- Header -->
  <rect width="720" height="80" fill="#4CAF50"/>
  
  <!-- Logo -->
  <g transform="translate(20, 20)">
    <path d="M30 8C18.75 8 7.5 18.75 7.5 30C7.5 41.25 30 41.25 30 30C30 41.25 52.5 41.25 52.5 30C52.5 18.75 41.25 8 30 8Z" fill="#ffffff" />
    <path d="M30 8C26.25 15 26.25 22.5 30 30M30 8C33.75 15 33.75 22.5 30 30M18.75 18.75C26.25 22.5 33.75 22.5 41.25 18.75" stroke="#e0e0e0" stroke-width="1.5" fill="none" />
    <circle cx="41.25" cy="26.25" r="7.5" fill="none" stroke="#FFC107" stroke-width="2" />
    <line x1="46.5" y1="31.5" x2="51" y2="36" stroke="#FFC107" stroke-width="2" stroke-linecap="round" />
    <text x="60" y="30" font-family="Arial, sans-serif" font-size="18" font-weight="bold" fill="#ffffff">AgriScan</text>
  </g>
  
  <!-- Menu Icon -->
  <rect x="670" y="30" width="30" height="4" rx="2" fill="#ffffff"/>
  <rect x="670" y="40" width="30" height="4" rx="2" fill="#ffffff"/>
  <rect x="670" y="50" width="30" height="4" rx="2" fill="#ffffff"/>
  
  <!-- Hero Section -->
  <rect x="20" y="100" width="680" height="180" rx="10" fill="#388E3C"/>
  <text x="40" y="150" font-family="Arial, sans-serif" font-size="28" font-weight="bold" fill="#ffffff">Detect Crop Diseases</text>
  <text x="40" y="180" font-family="Arial, sans-serif" font-size="16" fill="#ffffff">Upload a photo or use your camera</text>
  <text x="40" y="210" font-family="Arial, sans-serif" font-size="16" fill="#ffffff">Works offline in the field!</text>
  
  <!-- Upload Area -->
  <rect x="20" y="300" width="680" height="400" rx="10" fill="#ffffff" stroke="#e0e0e0" stroke-width="2"/>
  <circle cx="360" cy="420" r="60" fill="#f0f0f0" stroke="#4CAF50" stroke-width="2" stroke-dasharray="5,5"/>
  <path d="M360 390L340 410H350V440H370V410H380L360 390Z" fill="#4CAF50"/>
  <text x="360" y="500" font-family="Arial, sans-serif" font-size="18" text-anchor="middle" fill="#333333">Drag & drop your image here</text>
  <text x="360" y="530" font-family="Arial, sans-serif" font-size="16" text-anchor="middle" fill="#666666">or</text>
  
  <!-- Buttons -->
  <rect x="200" y="560" width="140" height="50" rx="25" fill="#4CAF50"/>
  <text x="270" y="590" font-family="Arial, sans-serif" font-size="16" text-anchor="middle" fill="#ffffff">Browse</text>
  
  <rect x="380" y="560" width="140" height="50" rx="25" fill="#FFC107"/>
  <text x="450" y="590" font-family="Arial, sans-serif" font-size="16" text-anchor="middle" fill="#333333">Camera</text>
  
  <!-- Results Section -->
  <rect x="20" y="720" width="680" height="400" rx="10" fill="#ffffff" stroke="#e0e0e0" stroke-width="2"/>
  <text x="40" y="760" font-family="Arial, sans-serif" font-size="20" font-weight="bold" fill="#333333">Results</text>
  
  <!-- Sample Result -->
  <rect x="40" y="780" width="640" height="120" rx="5" fill="#f9f9f9"/>
  <text x="60" y="810" font-family="Arial, sans-serif" font-size="18" font-weight="bold" fill="#4CAF50">Late Blight</text>
  <text x="60" y="835" font-family="Arial, sans-serif" font-size="14" fill="#666666">Confidence: 95%</text>
  <text x="60" y="860" font-family="Arial, sans-serif" font-size="14" fill="#666666">Crop: Tomato</text>
  
  <!-- Treatment Section -->
  <text x="40" y="930" font-family="Arial, sans-serif" font-size="16" font-weight="bold" fill="#333333">Treatment</text>
  <rect x="40" y="940" width="640" height="60" rx="5" fill="#f9f9f9"/>
  <text x="60" y="970" font-family="Arial, sans-serif" font-size="14" fill="#666666">Apply copper-based fungicides. Remove and destroy infected plants.</text>
  
  <!-- Prevention Section -->
  <text x="40" y="1030" font-family="Arial, sans-serif" font-size="16" font-weight="bold" fill="#333333">Prevention</text>
  <rect x="40" y="1040" width="640" height="60" rx="5" fill="#f9f9f9"/>
  <text x="60" y="1070" font-family="Arial, sans-serif" font-size="14" fill="#666666">Use disease-free seeds. Ensure proper spacing between plants for airflow.</text>
  
  <!-- Footer -->
  <rect y="1240" width="720" height="40" fill="#333333"/>
  <text x="360" y="1265" font-family="Arial, sans-serif" font-size="14" text-anchor="middle" fill="#ffffff">© 2023 AgriScan</text>
</svg>